# xmcd
#
# Track frame offsets:
#	150
#	13259
#	28448
#	40990
#	54780
#	67305
#	79978
#	90573
#	103067
#	117041
#	129359
#	142148
#	154914
#	165640
#	177759
#	191280
#	203089
#	216168
#	229221
#	242581
#
# Disc length: 3385 seconds
#
# Revision: 0
# Processed by: cddbd v1.5.1PL0 Copyright (c) Steve Scherf et al.
# Submitted via: dBpowerAMP V4.0
#
DISCID=1b0d3714
DTITLE=Various Artist - 20 Number 1 Country Hits
DYEAR=1900
DGENRE=Country
TTITLE0=Hank Williams - Jambalaya (On The Bayou)
TTITLE1=Billie Jo Spears - Blanket On The Ground
TTITLE2=Jack Guthrie - Oklahoma Hills
TTITLE3=Tennessee Ernie Ford - Mule Train
TTITLE4=Freddy Fender - Wasted Days and Wasted Nights
TTITLE5=Lynn Anderson - Rose garden
TTITLE6=Merle Travis - Divorce me C.o.d.
TTITLE7=Jimmy Wakely - One Has My Name The Other Has My Heart
TTITLE8=Lefty Frizzell - Always Late (With You Kisses)
TTITLE9=Leon Payne - I Love You Because
TTITLE10=Al Dexter and His Troopers - Pistol packin' Mama
TTITLE11=Han Snow - I'm Moving On
TTITLE12=Ferlin Husky - Gone
TTITLE13=Eddy Arnold - I'll Hold You In My Heart
TTITLE14=Pee Wee King - Slow Poke
TTITLE15=Jim Reeves - Mexican Joe
TTITLE16=Tex Williams - Smoke, Smoke, Smoke That Cigarette
TTITLE17=Red Foley - Smoke on The Water
TTITLE18=Webb Pierce - Wondering
TTITLE19=Kitty Wells - It Wasn't God Who Made Honky Tonk Angles
EXTD=
EXTT0=
EXTT1=
EXTT2=
EXTT3=
EXTT4=
EXTT5=
EXTT6=
EXTT7=
EXTT8=
EXTT9=
EXTT10=
EXTT11=
EXTT12=
EXTT13=
EXTT14=
EXTT15=
EXTT16=
EXTT17=
EXTT18=
EXTT19=
PLAYORDER=
